<svg width="1200" height="300" viewBox="0 0 1200 300" fill="none" xmlns="http://www.w3.org/2000/svg">
  <rect width="1200" height="300" rx="28" fill="#08111F"/>

  <defs>
    <linearGradient id="coreGradient" x1="0" y1="0" x2="1" y2="1">
      <stop offset="0%" stop-color="#9BE37D"/>
      <stop offset="100%" stop-color="#16A34A"/>
    </linearGradient>

    <linearGradient id="accentGlow" x1="0" y1="0" x2="1" y2="1">
      <stop offset="0%" stop-color="#0F766E" stop-opacity="0.18"/>
      <stop offset="100%" stop-color="#16A34A" stop-opacity="0.08"/>
    </linearGradient>
  </defs>

  <!-- fondo sutil -->
  <rect x="0" y="0" width="1200" height="300" rx="28" fill="#08111F"/>
  <circle cx="1030" cy="70" r="150" fill="url(#accentGlow)"/>
  <circle cx="90" cy="255" r="120" fill="#16A34A" opacity="0.06"/>

  <!-- líneas muy sutiles -->
  <path d="M0 215H1200" stroke="#132238" stroke-width="1"/>
  <path d="M0 140H1200" stroke="#132238" stroke-width="1" opacity="0.45"/>
  <path d="M170 0V300" stroke="#132238" stroke-width="1" opacity="0.35"/>
  <path d="M480 0V300" stroke="#132238" stroke-width="1" opacity="0.18"/>

  <!-- contenedor logo -->
  <rect x="72" y="74" width="112" height="112" rx="24" fill="#0E1A2D" stroke="#1B2C45" stroke-width="2"/>

  <!-- isotipo -->
  <path d="M128 98L159 154H140L128 132L116 154H97L128 98Z" fill="#F8FAFC"/>
  <circle cx="128" cy="144" r="18" fill="#08111F" stroke="url(#coreGradient)" stroke-width="8"/>
  <circle cx="128" cy="144" r="5.5" fill="#9BE37D"/>

  <!-- circuitos -->
  <path d="M92 137H110" stroke="#38BDF8" stroke-width="4.5" stroke-linecap="round"/>
  <path d="M146 137H165" stroke="#38BDF8" stroke-width="4.5" stroke-linecap="round"/>
  <circle cx="90" cy="137" r="5" fill="#08111F" stroke="#38BDF8" stroke-width="3.5"/>
  <circle cx="167" cy="137" r="5" fill="#08111F" stroke="#38BDF8" stroke-width="3.5"/>

  <path d="M92 156H111" stroke="#9BE37D" stroke-width="4.5" stroke-linecap="round"/>
  <path d="M145 156H165" stroke="#9BE37D" stroke-width="4.5" stroke-linecap="round"/>
  <circle cx="90" cy="156" r="5" fill="#08111F" stroke="#9BE37D" stroke-width="3.5"/>
  <circle cx="167" cy="156" r="5" fill="#08111F" stroke="#9BE37D" stroke-width="3.5"/>

  <!-- texto principal -->
  <text x="220" y="120" fill="#F8FAFC" font-family="Segoe UI, Arial, sans-serif" font-size="56" font-weight="800">
    Altiva<tspan fill="url(#coreGradient)">Core</tspan>
  </text>

  <text x="220" y="162" fill="#E2E8F0" font-family="Segoe UI, Arial, sans-serif" font-size="23" font-weight="600">
    Tecnología aplicada a procesos reales.
  </text>

  <text x="220" y="198" fill="#9FB2C8" font-family="Segoe UI, Arial, sans-serif" font-size="19">
    Automatización · Sistemas empresariales · Datos · Productos web
  </text>

  <!-- pills -->
  <g font-family="Segoe UI, Arial, sans-serif" font-size="13.5" font-weight="700">
    <rect x="220" y="222" width="112" height="34" rx="17" fill="#12233A"/>
    <text x="247" y="244" fill="#E2E8F0">Sistemas</text>

    <rect x="344" y="222" width="146" height="34" rx="17" fill="#12233A"/>
    <text x="368" y="244" fill="#E2E8F0">Automatización</text>

    <rect x="502" y="222" width="88" height="34" rx="17" fill="#12233A"/>
    <text x="532" y="244" fill="#E2E8F0">Datos</text>

    <rect x="602" y="222" width="114" height="34" rx="17" fill="#12233A"/>
    <text x="627" y="244" fill="#E2E8F0">MiCajaPOS</text>
  </g>
</svg>
